<svg width="339" height="48" viewBox="0 0 339 48" fill="none" xmlns="http://www.w3.org/2000/svg">
<g clip-path="url(#clip0_117039_20066)">
<mask id="mask0_117039_20066" style="mask-type:luminance" maskUnits="userSpaceOnUse" x="0" y="0" width="339" height="48">
<path d="M339 0H0V48H339V0Z" fill="white"/>
</mask>
<g mask="url(#mask0_117039_20066)">
<mask id="mask1_117039_20066" style="mask-type:luminance" maskUnits="userSpaceOnUse" x="0" y="0" width="339" height="48">
<path d="M339 0H0V48H339V0Z" fill="white"/>
</mask>
<g mask="url(#mask1_117039_20066)">
<path d="M0 4C0 1.79086 1.79086 0 4 0H44C46.2092 0 48 1.79086 48 4V44C48 46.2092 46.2092 48 44 48H4C1.79086 48 0 46.2092 0 44V4Z" fill="white"/>
<path d="M31 15H18V33H31V15Z" fill="white"/>
<path d="M19.0297 20.1642C20.2029 23.752 20.6473 30.152 24.0781 30.152C24.339 30.152 24.6033 30.1265 24.8681 30.076C21.7497 29.349 21.3799 23.0186 19.4767 19.74C19.3251 19.8786 19.176 20.02 19.0297 20.1642Z" fill="url(#paint0_linear_117039_20066)"/>
<path d="M19.4767 19.74C21.3799 23.0183 21.7496 29.3487 24.8681 30.076C25.1184 30.0288 25.3646 29.9622 25.6047 29.877C22.8052 28.5053 22.0317 22.3583 19.8703 19.3989C19.7395 19.508 19.6083 19.6217 19.4767 19.74Z" fill="url(#paint1_linear_117039_20066)"/>
<path d="M22.2188 17.7905C21.9584 17.7905 21.6936 17.816 21.428 17.8665C20.7342 17.9975 20.0287 18.2963 19.3179 18.7486C19.5118 18.9404 19.6969 19.1596 19.8706 19.3989C20.5939 18.7989 21.3122 18.3555 22.0275 18.0888C22.2887 17.991 22.5579 17.9161 22.8321 17.8652C22.6315 17.815 22.4255 17.7899 22.2188 17.7905Z" fill="#14559A"/>
<path d="M27.7899 28.6129C28.0882 28.3748 28.3754 28.1231 28.6505 27.8586C27.4584 24.2878 27.0316 17.7959 23.5768 17.7959C23.3298 17.7959 23.0807 17.819 22.832 17.865C25.9789 18.6478 26.3821 25.4942 27.7899 28.6129Z" fill="url(#paint2_linear_117039_20066)"/>
<path d="M22.8324 17.8652C22.6316 17.8149 22.4254 17.7897 22.2185 17.7903L23.5769 17.7953C23.3301 17.7953 23.081 17.8182 22.8324 17.8652Z" fill="#3092C4"/>
<path d="M27.7293 29.3712C27.5917 29.2384 27.4617 29.098 27.3399 28.9504C26.7588 29.3619 26.1797 29.674 25.6046 29.8772C25.8094 29.9771 26.0238 30.0515 26.2517 30.0974C26.4281 30.1335 26.6111 30.1521 26.8028 30.1521C27.4486 30.1521 27.9591 30.0756 28.3931 29.8674C28.1541 29.7378 27.9347 29.5704 27.7293 29.3712Z" fill="#1969BC"/>
<path d="M22.0272 18.0892C24.8458 19.5634 25.0909 26.2396 27.34 28.9503C27.4905 28.8441 27.6402 28.7316 27.7892 28.6127C26.3813 25.494 25.9789 18.6467 22.8326 17.8647C22.5643 17.9147 22.2959 17.9895 22.0272 18.0892Z" fill="url(#paint3_linear_117039_20066)"/>
<path d="M19.8704 19.3989C22.0318 22.3582 22.8053 28.5056 25.6047 29.8773C26.18 29.6741 26.7591 29.3622 27.34 28.9505C25.091 26.2398 24.8458 19.5638 22.0272 18.0894C21.3119 18.3555 20.5937 18.7988 19.8704 19.3989Z" fill="url(#paint4_linear_117039_20066)"/>
<path d="M17.6471 20.0778C17.3084 20.8436 16.9623 21.8506 16.5442 23.1646C17.3759 21.9924 18.2051 20.9828 19.0296 20.1644C18.9255 19.8384 18.803 19.5186 18.6625 19.2065C18.3084 19.4782 17.9694 19.769 17.6471 20.0778Z" fill="url(#paint5_linear_117039_20066)"/>
<path d="M18.963 18.9854C18.8637 19.0565 18.7635 19.1293 18.6628 19.2064C18.7943 19.4932 18.916 19.8152 19.0294 20.1645C19.176 20.0205 19.3252 19.8791 19.4767 19.7403C19.3251 19.4758 19.1533 19.2235 18.963 18.9854Z" fill="#2B74B1"/>
<path d="M19.3178 18.7483C19.1999 18.8234 19.0815 18.9023 18.9626 18.985C19.1473 19.2121 19.3167 19.4657 19.4769 19.7404C19.6083 19.6212 19.7395 19.5073 19.8706 19.3985C19.6968 19.1595 19.512 18.9401 19.3178 18.7483Z" fill="#125A9E"/>
<path d="M38.5432 17.5172C36.9492 23.6648 33.6196 28.6028 30.8284 29.8475H30.8228L30.6722 29.9121L30.6539 29.9192L30.6111 29.9357L30.592 29.9437L30.5221 29.9684L30.4935 29.9785L30.4587 29.9899L30.4252 30.0016L30.3954 30.0117L30.3359 30.0297L30.3104 30.0364L30.2703 30.0473L30.243 30.0547L30.1991 30.0661L30.1458 30.0778C30.2719 30.1243 30.4034 30.1479 30.545 30.1479C33.1919 30.1479 35.8609 25.4044 40.277 17.5159H38.543L38.5432 17.5172Z" fill="url(#paint6_linear_117039_20066)"/>
<path d="M15.9691 18.0401L15.9742 18.0359L15.9803 18.0319H15.9837L16.0265 18.0154L16.035 18.0112L16.0461 18.0067L16.0921 17.9902H16.0945L16.1962 17.9546L16.2114 17.9506L16.2549 17.9376L16.2748 17.9312L16.3187 17.9182L16.3354 17.9137L16.481 17.876L16.5009 17.8715L16.5434 17.8632L16.5641 17.8569L16.6069 17.8489H16.617L16.7054 17.8324H16.7229L16.7639 17.8253L16.787 17.8213L16.826 17.8154L16.8475 17.8112L16.9426 17.8027C16.8489 17.7937 16.7549 17.7889 16.6608 17.7883C13.6797 17.7883 9.57259 23.3192 7.72278 30.482H8.07951C8.63258 29.4934 9.16939 28.4957 9.68973 27.4895C10.9857 22.416 13.6247 18.956 15.9691 18.0393" fill="url(#paint7_linear_117039_20066)"/>
<path d="M17.6471 20.0778C17.9698 19.7694 18.3087 19.4784 18.6626 19.2063C18.5906 19.046 18.5098 18.8899 18.4206 18.7385C18.1481 19.0695 17.8989 19.5062 17.6471 20.0778Z" fill="#0D82CA"/>
<path d="M17.892 18.0819C18.0867 18.245 18.2612 18.4697 18.4206 18.7388C18.4705 18.6773 18.5219 18.6199 18.5746 18.5664C18.3605 18.364 18.1178 18.1942 17.8542 18.0625L17.8861 18.0776L17.892 18.0819Z" fill="#0D82CA"/>
<path d="M9.68994 27.4897C12.4081 22.2518 13.6958 18.9368 15.9693 18.0396C13.6252 18.957 10.9857 22.4168 9.68994 27.4897Z" fill="url(#paint8_linear_117039_20066)"/>
<path d="M18.5744 18.5664C18.5215 18.6206 18.471 18.6772 18.4203 18.7388C18.5058 18.8817 18.5852 19.0374 18.6628 19.2063C18.7632 19.1293 18.8636 19.0568 18.9627 18.9853C18.8434 18.8366 18.7137 18.6966 18.5744 18.5664Z" fill="#127BCA"/>
<path d="M10.9241 30.4586L10.8747 30.4644H10.8654L10.8234 30.4687H10.8165L10.7167 30.4753H10.7063C13.4571 30.3983 14.7148 29.021 15.3388 27.023C15.8129 25.5086 16.2026 24.2326 16.5439 23.1621C15.3917 24.784 14.2341 26.7172 13.0704 28.8834C12.5094 29.9273 11.6559 30.3635 10.9241 30.4564" fill="url(#paint9_linear_117039_20066)"/>
<path d="M10.9241 30.4576C11.6559 30.3643 12.5093 29.9287 13.0703 28.8843C14.234 26.7192 15.3922 24.7854 16.5434 23.1632C16.9623 21.8487 17.3079 20.8425 17.6468 20.0764C15.3521 22.2607 13.0486 25.8925 10.9238 30.4562" fill="url(#paint10_linear_117039_20066)"/>
<path d="M9.68995 27.49C9.16961 28.4963 8.63271 29.4939 8.07947 30.4825H9.11647C9.24774 29.4747 9.43916 28.4755 9.68969 27.4905" fill="#05A1E6"/>
<path d="M16.8475 17.8133L16.8254 17.8175L16.7867 17.8231L16.7638 17.8271L16.7229 17.8343L16.7054 17.8385L16.6169 17.8539H16.6068L16.5638 17.8624L16.5423 17.8683L16.5006 17.8765L16.4809 17.8813L16.3351 17.919L16.3184 17.9238L16.2743 17.9368L16.2543 17.9424L16.211 17.9554L16.1951 17.9596L16.0939 17.9952L16.0479 18.0112L16.0288 18.0191L15.9861 18.0351L15.9717 18.042C13.6985 18.939 12.4107 22.254 9.6926 27.4919C9.44145 28.4767 9.25003 29.4759 9.11938 30.4839H9.26468L10.2621 30.4796H10.7198L10.8194 30.473H10.8258L10.8677 30.4687H10.8776L10.927 30.4629C13.052 25.8989 15.3555 22.2673 17.6499 20.0831C17.9023 19.5114 18.1512 19.0747 18.4232 18.7443C18.2638 18.4752 18.0895 18.25 17.8951 18.0866L17.8895 18.0824L17.8571 18.0667L17.825 18.0505L17.7939 18.0354L17.757 18.0199L17.7283 18.0075L17.668 17.9822L17.6422 17.9727L17.5973 17.9546L17.5732 17.9466L17.5107 17.9251H17.5057L17.4334 17.9047L17.4172 17.8996L17.3564 17.8826L17.3423 17.8786C17.2924 17.8657 17.242 17.8547 17.1912 17.8454L17.1755 17.8412L17.1099 17.8306L17.0969 17.8266L17.0193 17.8162H17.0058L16.9458 17.8096L16.8507 17.8183" fill="url(#paint11_linear_117039_20066)"/>
<path d="M32.317 20.9205C31.7937 22.5958 31.3705 23.9778 31.0016 25.115C32.4368 23.1401 33.8504 20.6559 35.1963 17.7893C33.6257 18.2826 32.7884 19.4115 32.317 20.9205Z" fill="url(#paint12_linear_117039_20066)"/>
<path d="M31.047 29.743C30.9739 29.7802 30.9004 29.8155 30.8284 29.8477C33.6196 28.6027 36.9494 23.6647 38.5432 17.5171H38.2202C34.5577 24.0597 33.38 28.4396 31.047 29.743Z" fill="url(#paint13_linear_117039_20066)"/>
<path d="M29.2243 29.1934C29.8318 28.452 30.3262 27.1919 31.0016 25.115C30.2226 26.1852 29.4384 27.1051 28.6535 27.8552L28.6495 27.8618C28.8209 28.3747 29.0087 28.8276 29.2228 29.1931" fill="#079AE1"/>
<path d="M29.2243 29.1936C29.0177 29.4459 28.7985 29.638 28.5552 29.7804C28.5021 29.8115 28.4481 29.8405 28.3932 29.8672C28.6572 30.0106 28.9463 30.1018 29.2448 30.1358L29.384 30.148H29.3922L29.4591 30.1522H29.6863L29.712 30.148L29.7622 30.1437H29.7867L29.8411 30.1379H29.8456L29.8624 30.1339L29.9205 30.1249H29.9375L30.0029 30.114H30.0135L30.1439 30.0864C29.7835 29.9546 29.482 29.6436 29.2225 29.2008" fill="#1969BC"/>
<path d="M24.0784 30.1522C24.3392 30.1522 24.6032 30.1267 24.8681 30.0757C25.1185 30.0293 25.3648 29.9629 25.6047 29.8773C25.8094 29.9772 26.0241 30.0515 26.2514 30.098C26.4275 30.1341 26.6114 30.1523 26.8032 30.1525L24.0784 30.1522ZM26.8032 30.1525C27.4484 30.1525 27.9594 30.0757 28.3932 29.8672C28.6571 30.0107 28.9463 30.102 29.2448 30.136L29.384 30.148H29.3922L29.4591 30.1522H29.5394L26.8032 30.1525Z" fill="#1E5CB3"/>
<path d="M29.5393 30.1521H29.6883L29.7141 30.1479L29.7648 30.1436H29.7893L29.8434 30.1378H29.848L29.8644 30.1335L29.9226 30.1248L29.9404 30.1208L30.006 30.1101H30.0164L30.1468 30.0825C30.273 30.129 30.4044 30.1526 30.546 30.1526L29.5398 30.1569L29.5393 30.1521Z" fill="#1D60B5"/>
<path d="M28.6514 27.8622V27.8579C28.3762 28.1224 28.089 28.3741 27.7908 28.6123C27.6441 28.7291 27.4942 28.8417 27.3411 28.9499C27.4675 29.1008 27.5958 29.2421 27.731 29.3709C27.9361 29.5699 28.1552 29.7375 28.3945 29.8668C28.4493 29.8399 28.5032 29.811 28.5563 29.78C28.8001 29.6376 29.0188 29.4453 29.2257 29.1932C29.0116 28.8277 28.8238 28.3746 28.6527 27.8619" fill="#175FAB"/>
<path d="M37.1976 17.5171H35.5717L35.3141 17.5296L35.1943 17.7862C33.8481 20.6531 32.435 23.1372 30.9998 25.1121C30.3251 27.1888 29.83 28.4492 29.2228 29.1902C29.4823 29.6333 29.7843 29.9446 30.1434 30.0766L30.1716 30.0705H30.1774L30.1974 30.0663L30.2425 30.0551L30.2693 30.0474L30.3094 30.0371L30.3344 30.0299L30.3944 30.0118L30.4242 30.0017L30.4577 29.9895L30.4922 29.9786L30.5204 29.968L30.5905 29.9433L30.6099 29.9361L30.6529 29.9194L30.671 29.9127L30.8218 29.8482H30.8272C30.8991 29.8166 30.9725 29.7807 31.0452 29.7435C33.3787 28.4399 34.5568 24.0602 38.2192 17.5179H37.1963L37.1976 17.5171Z" fill="url(#paint14_linear_117039_20066)"/>
<path d="M16.9431 17.8047L16.9598 17.809L17.0023 17.8135H17.0167L17.0943 17.8236L17.1073 17.8278L17.1726 17.8387L17.1891 17.8427L17.3397 17.8762L17.3535 17.8804L17.4141 17.8974L17.4308 17.9025L17.5028 17.9229L17.5084 17.9272L17.5713 17.9487L17.5952 17.9564L17.6404 17.9747L17.6659 17.9838L17.7259 18.0087L17.7551 18.0212L17.7913 18.0369L17.8231 18.052L17.8547 18.0685C18.1148 18.196 18.3538 18.3663 18.5754 18.5726C18.657 18.4871 18.7422 18.4097 18.8309 18.3405C18.3467 17.997 17.7976 17.8013 17.1652 17.8013C17.0919 17.8013 17.0186 17.8055 16.9442 17.8111" fill="#7DCBEC"/>
<path d="M18.5743 18.5664C18.7101 18.6926 18.84 18.8333 18.9627 18.9853C19.0817 18.9027 19.1996 18.823 19.3178 18.7486C19.1672 18.5967 19.0038 18.458 18.8293 18.3342C18.741 18.4033 18.656 18.4807 18.5743 18.5664Z" fill="#5EC5ED"/>
<path d="M16.8728 17.8219L17.0939 17.8126C17.7268 17.8126 18.2753 18.0083 18.7593 18.3516C19.2702 17.948 19.8883 17.8072 20.7464 17.8072H16.5911L16.8728 17.8219Z" fill="url(#paint15_linear_117039_20066)"/>
<path d="M20.7465 17.8074C19.8883 17.8074 19.2716 17.9482 18.7594 18.3518C18.9292 18.4715 19.092 18.6097 19.2475 18.7661C19.9595 18.3142 20.6634 18.0139 21.358 17.8838C21.6235 17.8337 21.8867 17.8087 22.1478 17.8087L20.7465 17.8074Z" fill="url(#paint16_linear_117039_20066)"/>
<path d="M31.0016 25.1163C31.3711 23.9783 31.7932 22.5968 32.3175 20.921C32.7895 19.4112 33.6257 18.2823 35.1956 17.7898L35.3167 17.5332C32.7571 17.6865 31.5608 18.9886 30.9591 20.9167C29.9062 24.283 29.2684 26.4651 28.6543 27.8557C29.4384 27.1058 30.2225 26.1854 31.0016 25.1163Z" fill="url(#paint17_linear_117039_20066)"/>
<path d="M58.3105 4C58.3105 1.79086 60.1014 0 62.3105 0H102.311C104.52 0 106.311 1.79086 106.311 4V44C106.311 46.2092 104.52 48 102.311 48H62.3105C60.1014 48 58.3105 46.2092 58.3105 44V4Z" fill="white"/>
<path d="M93.8 12H71L73.0118 34.3429L82.4 36.9714L91.7882 34.3429L93.8 12Z" fill="#EEEEEE"/>
<path d="M82.3999 14.1714V34.8L89.9444 32.7307L91.6285 14.1714H82.3999Z" fill="#F8D2B6"/>
<path d="M82.3999 25.0926V22.5379H87.9819L87.5275 29.8825L82.3999 31.543V28.8606L85.0611 27.9665L85.2558 25.0926H82.3999ZM88.1766 19.9833L88.3713 17.4287H82.3999V19.9833H88.1766Z" fill="#FF6D00"/>
<path d="M82.4001 28.8606V31.543L77.2162 29.8825L76.9537 26.3699H79.5785L79.7097 27.9665L82.4001 28.8606ZM79.1848 19.9833H82.4001V17.4287H76.4287L76.8881 25.0926H82.4001V22.5379H79.3816L79.1848 19.9833Z" fill="#FF8224"/>
<path d="M116.311 4C116.311 1.79086 118.102 0 120.311 0H160.312C162.521 0 164.312 1.79086 164.312 4V44C164.312 46.2092 162.521 48 160.312 48H120.311C118.102 48 116.311 46.2092 116.311 44V4Z" fill="white"/>
<mask id="mask2_117039_20066" style="mask-type:luminance" maskUnits="userSpaceOnUse" x="129" y="12" width="23" height="25">
<path d="M151.8 12H129V36.97H151.8V12Z" fill="white"/>
</mask>
<g mask="url(#mask2_117039_20066)">
<g opacity="0.9">
<path d="M140.386 36.8917L131.107 34.41L129.04 12.0657H151.76L149.69 34.4065L140.386 36.8917Z" fill="#264DE4"/>
<path d="M147.918 32.9839L149.687 13.8926H140.4V34.9921L147.918 32.9839Z" fill="#2965F1"/>
<path d="M133.78 22.1798L134.035 24.9202H140.4V22.1798H133.78ZM133.268 16.6331L133.526 19.3735H140.4V16.6331H133.268ZM140.4 29.297L140.388 29.3002L137.22 28.4761L137.017 26.2905H134.162L134.56 30.5934L140.387 32.1516L140.4 32.1482V29.297Z" fill="#EBEBEB"/>
<path d="M147.002 22.1798L147.515 16.6331H140.39V19.3735H144.398L144.139 22.1798H140.39V24.9202H143.893L143.563 28.4744L140.39 29.2993V32.1503L146.221 30.5934L146.264 30.1303L146.933 22.9157L147.002 22.1798Z" fill="white"/>
</g>
</g>
<path d="M174.312 4C174.312 1.79086 176.102 0 178.312 0H218.312C220.521 0 222.312 1.79086 222.312 4V44C222.312 46.2092 220.521 48 218.312 48H178.312C176.102 48 174.312 46.2092 174.312 44V4Z" fill="white"/>
<path d="M186.471 40.3199C184.262 40.3199 182.471 38.5291 182.471 36.3199V12.6399C182.471 10.4308 184.262 8.63989 186.471 8.63989H210.151C212.361 8.63989 214.151 10.4308 214.151 12.6399V36.3199C214.151 38.5291 212.361 40.3199 210.151 40.3199H186.471Z" fill="#FFD600"/>
<path d="M203.185 32.3534C203.794 33.3425 204.455 34.2902 205.857 34.2902C207.035 34.2902 207.653 33.705 207.653 32.8954C207.653 31.9266 207.014 31.5825 205.718 31.0184L205.008 30.7157C202.959 29.8462 201.595 28.7568 201.595 26.4556C201.595 24.3348 203.219 22.7209 205.756 22.7209C207.563 22.7209 208.861 23.3465 209.797 24.9851L207.585 26.3993C207.098 25.5298 206.572 25.1875 205.756 25.1875C204.924 25.1875 204.397 25.7129 204.397 26.3993C204.397 27.2476 204.925 27.5908 206.143 28.1162L206.853 28.4189C209.269 29.4476 210.631 30.4983 210.631 32.8602C210.631 35.4052 208.621 36.8 205.923 36.8C203.284 36.8 201.786 35.4756 200.951 33.8362L203.185 32.3534ZM192.989 32.4255C193.434 33.2228 194.111 33.8362 195.084 33.8362C196.015 33.8362 196.551 33.4683 196.551 32.0383V22.72H199.484V32.4889C199.484 35.4518 197.766 36.8 195.256 36.8C192.988 36.8 191.351 35.2635 190.684 33.8362L192.989 32.4255Z" fill="#000001"/>
<path d="M232.312 4C232.312 1.79086 234.102 0 236.312 0H276.312C278.521 0 280.312 1.79086 280.312 4V44C280.312 46.2092 278.521 48 276.312 48H236.312C234.102 48 232.312 46.2092 232.312 44V4Z" fill="white"/>
<mask id="mask3_117039_20066" style="mask-type:luminance" maskUnits="userSpaceOnUse" x="239" y="12" width="36" height="23">
<path d="M263.765 12.855H249.778C243.825 12.855 239 17.6804 239 23.6329C239 29.5854 243.825 34.4108 249.778 34.4108H263.765C269.717 34.4108 274.543 29.5854 274.543 23.6329C274.543 17.6804 269.717 12.855 263.765 12.855Z" fill="white"/>
</mask>
<g mask="url(#mask3_117039_20066)">
<path d="M248.505 23.9903C248.481 24.0269 248.434 24.1423 248.371 24.3351C248.306 24.5294 248.227 24.7714 248.134 25.067C248.042 25.3583 247.94 25.6863 247.833 26.048L247.5 27.157C247.373 27.5342 247.274 27.9029 247.162 28.266L246.88 29.2484L246.669 29.9831L246.571 30.3349C246.529 30.4517 246.486 30.5812 246.416 30.7248C246.346 30.8655 246.261 31.002 246.177 31.1301C246.078 31.2568 245.98 31.3651 245.867 31.4496C245.754 31.534 245.642 31.5763 245.515 31.5763C245.318 31.5763 245.177 31.5087 245.079 31.3792C244.98 31.2455 244.938 31.0048 244.938 30.653V30.3349C244.938 30.2181 244.994 29.9971 245.079 29.6763C245.163 29.3525 245.262 28.9894 245.389 28.5841C245.501 28.176 245.642 27.7566 245.769 27.3217L246.149 26.1394C245.811 26.5054 245.459 26.8713 245.079 27.2231C244.699 27.5891 244.305 27.9128 243.911 28.1943C243.503 28.4757 243.094 28.715 242.686 28.898C242.278 29.0809 241.884 29.1654 241.504 29.1654C241.068 29.1654 240.702 29.0668 240.392 28.8698C240.083 28.6728 239.815 28.4335 239.618 28.1239C239.421 27.8143 239.266 27.4624 239.168 27.0824C239.113 26.7179 239.057 26.3238 239.057 25.9438V25.8031C239.057 25.7608 239.062 25.7144 239.071 25.6708C239.104 24.9671 239.204 24.2493 239.366 23.5118C239.535 22.7687 239.746 22.034 240.014 21.3022C240.281 20.5703 240.591 19.8526 240.943 19.1545C241.308 18.4846 241.688 17.8231 242.097 17.2038C242.505 16.5846 242.944 16.0075 243.406 15.4868C243.87 14.9632 244.344 14.5128 244.833 14.1357C245.32 13.7557 245.812 13.4601 246.31 13.249C246.803 13.0379 247.296 12.9253 247.783 12.9253C248.346 12.9253 248.889 13.0801 249.415 13.3855C249.936 13.6994 250.428 14.192 250.89 14.8816C250.994 15.0364 251.059 15.1912 251.087 15.3488C251.115 15.5037 251.129 15.6543 251.129 15.7922C251.129 16.1215 251.052 16.3833 250.894 16.5719C250.74 16.7689 250.557 16.8534 250.331 16.8534C250.134 16.8534 249.951 16.7548 249.782 16.5437C249.614 16.3326 249.417 16.0371 249.22 15.6571C249.022 15.3052 248.811 15.0519 248.572 14.8971C248.333 14.7423 248.08 14.6719 247.798 14.6719C247.362 14.6719 246.911 14.8548 246.419 15.2208C245.926 15.5867 245.448 16.0511 244.969 16.6423C244.491 17.2334 244.026 17.9089 243.59 18.6689C243.154 19.4289 242.76 20.203 242.422 21.0052C242.084 21.8074 241.817 22.5815 241.62 23.3556C241.422 24.1297 241.324 24.8193 241.324 25.4386C241.324 25.6497 241.338 25.8608 241.366 26.0719C241.394 26.2971 241.451 26.48 241.521 26.663C241.591 26.846 241.704 26.9867 241.845 27.0993C241.985 27.2119 242.154 27.2682 242.351 27.2682C242.577 27.2682 242.844 27.1978 243.125 27.043C243.421 26.8882 243.717 26.6911 244.026 26.4378C244.336 26.1845 244.66 25.903 244.969 25.5934C245.279 25.2837 245.588 24.96 245.856 24.6363C246.123 24.3126 246.377 24.003 246.574 23.7074C246.785 23.4119 246.94 23.1586 247.052 22.9334L247.867 20.3142C247.971 20.0369 248.106 19.8385 248.279 19.7231C248.448 19.6048 248.621 19.5457 248.8 19.5457C248.885 19.5457 248.973 19.5598 249.06 19.588C249.145 19.6161 249.227 19.6611 249.296 19.7231C249.366 19.7794 249.418 19.8638 249.459 19.9623C249.501 20.0608 249.529 20.1734 249.529 20.3142C249.529 20.666 249.501 20.9982 249.445 21.305C249.388 21.6146 249.304 21.9102 249.205 22.2057C249.121 22.4943 249.008 22.7884 248.896 23.0854C248.783 23.3809 248.671 23.6906 248.558 24.0143L248.505 23.9903ZM260.19 26.1408C259.919 26.5068 259.602 26.8643 259.242 27.2105C258.88 27.5595 258.507 27.8691 258.124 28.1394C257.741 28.4096 257.364 28.6277 256.994 28.7924C256.622 28.9571 256.29 29.0387 255.995 29.0387C255.699 29.0387 255.456 28.9402 255.27 28.7431C255.084 28.5461 254.991 28.2083 254.991 27.7298C254.991 27.392 255.042 26.998 255.14 26.5476C254.98 26.8291 254.779 27.1246 254.538 27.4061C254.299 27.7017 254.022 27.9691 253.713 28.2083C253.404 28.4476 253.058 28.6446 252.675 28.7854C252.292 28.9261 251.875 29.0106 251.422 29.0106C251.221 29.0106 251.024 28.9824 250.835 28.9261C250.638 28.8698 250.469 28.7854 250.329 28.6587C250.188 28.532 250.075 28.3631 249.977 28.152C249.892 27.9409 249.85 27.6735 249.85 27.3639L249.878 27.0261C249.906 26.815 249.977 26.4631 250.117 25.9987C250.258 25.5343 250.455 24.9291 250.737 24.1831C251.018 23.4372 251.398 22.5506 251.905 21.495C252.032 21.2135 252.172 21.0165 252.355 20.8898C252.524 20.7631 252.707 20.7068 252.904 20.7068C252.989 20.7068 253.073 20.7209 253.172 20.7491C253.256 20.7631 253.34 20.8054 253.425 20.8617C253.509 20.918 253.566 20.9883 253.622 21.0728C253.664 21.1431 253.692 21.2417 253.692 21.3543C253.692 21.4246 253.678 21.495 253.664 21.5513C253.622 21.678 253.566 21.8328 253.467 22.0298L253.101 22.7251C252.96 22.9784 252.82 23.2599 252.665 23.5583C252.51 23.858 252.369 24.1775 252.243 24.49C252.116 24.8137 252.003 25.1444 251.905 25.4751C251.806 25.8129 251.75 26.1366 251.736 26.4463C251.736 26.587 251.764 26.6996 251.82 26.8122C251.877 26.9248 251.989 26.9811 252.13 26.9811C252.524 26.9811 252.918 26.8544 253.284 26.587C253.65 26.3238 253.988 25.9959 254.297 25.6046C254.607 25.2106 254.889 24.7883 255.142 24.338C255.395 23.8876 255.592 23.4794 255.761 23.1079C255.874 22.8588 255.986 22.5914 256.071 22.3057C256.155 22.0242 256.254 21.7568 256.366 21.5175C256.465 21.2783 256.592 21.0728 256.732 20.9123C256.859 20.7519 257.028 20.6731 257.239 20.6731C257.45 20.6731 257.633 20.7575 257.76 20.9264C257.886 21.0953 257.957 21.2923 257.957 21.5316C257.957 21.6583 257.914 21.8412 257.83 22.0664C257.746 22.2916 257.647 22.559 257.52 22.8546L257.112 23.8074C256.957 24.1451 256.831 24.4829 256.704 24.8348C256.577 25.1796 256.465 25.5244 256.38 25.8537C256.296 26.1915 256.254 26.5011 256.254 26.7826C256.254 27.05 256.394 27.1767 256.662 27.1767C256.859 27.1767 257.098 27.1204 257.38 26.9797C257.661 26.853 257.957 26.67 258.266 26.4308C258.576 26.1915 258.886 25.91 259.195 25.5863C259.505 25.2626 259.786 24.9192 260.026 24.5448L260.124 26.0367L260.19 26.1408Z" fill="#E84D4E"/>
<path d="M260.477 25.5919C260.41 25.7608 260.344 25.9578 260.28 26.1802C260.214 26.4026 260.182 26.6024 260.182 26.7784C260.182 26.8881 260.2 26.9754 260.238 27.0415C260.275 27.1077 260.345 27.1401 260.449 27.1401C260.58 27.1401 260.742 27.095 260.938 27.0035C261.132 26.9121 261.342 26.7924 261.567 26.6404C261.792 26.4912 262.028 26.3195 262.271 26.1253C262.515 25.9283 262.759 25.7172 263 25.5201C263.239 25.309 263.47 25.0979 263.689 24.8868C263.909 24.6757 264.106 24.4787 264.28 24.3098C264.328 24.2535 264.386 24.2253 264.455 24.1972C264.522 24.169 264.581 24.155 264.631 24.155C264.757 24.155 264.856 24.1972 264.94 24.3098C265.025 24.4083 265.067 24.549 265.067 24.7179C265.067 24.8727 265.025 25.0416 264.94 25.2246C264.856 25.4075 264.701 25.5905 264.49 25.7735C264.096 26.1957 263.702 26.6038 263.294 26.9979C262.9 27.3779 262.491 27.7298 262.097 28.0253C261.703 28.3209 261.309 28.5461 260.915 28.729C260.521 28.8979 260.141 28.9824 259.775 28.9824C259.522 28.9824 259.311 28.9401 259.142 28.8557C258.973 28.7712 258.846 28.6587 258.734 28.5179C258.635 28.3772 258.565 28.2083 258.523 28.0253C258.48 27.8283 258.466 27.6312 258.466 27.4201C258.466 27.0542 258.509 26.6883 258.607 26.3083C258.706 25.9283 258.804 25.5764 258.931 25.2668C259.156 24.6898 259.367 24.1268 259.592 23.5638L260.211 22.0157L263.011 14.966C263.116 14.6845 263.264 14.4847 263.454 14.3608C263.646 14.2482 263.834 14.1919 264.027 14.1919C264.224 14.1919 264.393 14.2482 264.553 14.3749C264.708 14.4959 264.793 14.6986 264.793 14.9758C264.793 15.1067 264.764 15.2461 264.715 15.3924C264.659 15.5332 264.603 15.6936 264.518 15.8611C264.363 16.2017 264.18 16.6211 263.969 17.1193L263.266 18.7519C263.026 19.336 262.773 19.9482 262.52 20.5815L261.76 22.4393C261.506 23.0417 261.281 23.6075 261.07 24.1479L260.521 25.5455L260.477 25.5919Z" fill="#E84D4E"/>
<path d="M273.608 23.6074C273.697 23.5469 273.777 23.4991 273.852 23.4625C273.925 23.4259 273.997 23.4062 274.063 23.4062C274.199 23.4062 274.302 23.4681 274.37 23.5891C274.44 23.7102 274.482 23.8566 274.482 24.0339C274.482 24.2239 274.44 24.4181 274.356 24.6151C274.271 24.8122 274.159 24.9783 273.99 25.1077C273.328 25.6946 272.737 26.2294 272.23 26.7122C271.71 27.1949 271.231 27.6101 270.767 27.9577C270.302 28.3096 269.852 28.577 269.416 28.774C268.979 28.9711 268.515 29.0696 268.008 29.0696C267.544 29.0696 267.178 28.9711 266.924 28.76C266.671 28.5629 266.544 28.2814 266.544 27.9155V27.8311C266.544 27.817 266.559 27.7748 266.559 27.7466C266.587 27.5355 266.685 27.2822 266.854 26.9866C267.023 26.7051 267.22 26.4096 267.459 26.1C267.699 25.7903 267.952 25.4807 268.219 25.1711C268.487 24.8614 268.726 24.5659 268.965 24.2844C269.19 24.0029 269.373 23.7496 269.528 23.5103C269.683 23.2851 269.753 23.0881 269.753 22.9474C269.753 22.8629 269.725 22.7926 269.666 22.7363C269.6 22.694 269.497 22.6659 269.356 22.6659C269.103 22.6659 268.85 22.7363 268.588 22.8629C268.321 22.9896 268.059 23.1726 267.8 23.3837C267.547 23.6089 267.293 23.8481 267.051 24.1296C266.809 24.4111 266.587 24.7066 266.362 25.0022C266.15 25.3118 265.953 25.6074 265.77 25.917C265.602 26.2266 265.447 26.5081 265.32 26.7614L265.165 27.0992L264.954 27.6059L264.701 28.1689L264.462 28.7177L264.264 29.1822C264.208 29.3229 264.166 29.4074 264.138 29.4637C264.11 29.534 264.067 29.6607 263.997 29.8437L263.744 30.4883L263.448 31.2623L263.167 32.0223L262.927 32.6669C262.857 32.8499 262.815 32.9737 262.801 33.0399C262.73 33.2229 262.66 33.4058 262.576 33.5747C262.491 33.7436 262.4 33.8886 262.291 34.0166C262.184 34.1433 262.06 34.2489 261.921 34.3263C261.78 34.3966 261.626 34.4389 261.457 34.4389C261.232 34.4389 261.049 34.3826 260.908 34.2812C260.767 34.1827 260.683 33.9716 260.683 33.676C260.683 33.5353 260.697 33.3805 260.739 33.2257C260.767 33.0709 260.823 32.9273 260.88 32.7753C260.922 32.6205 260.992 32.4797 261.049 32.339C261.105 32.1983 261.161 32.0575 261.203 31.9224C261.527 31.1906 261.872 30.4587 262.217 29.7184C262.562 28.9781 262.892 28.2547 263.216 27.5369C263.534 26.8191 263.828 26.1154 264.103 25.4117C264.37 24.7221 264.595 24.0522 264.778 23.4132L264.975 22.8559C265.06 22.6166 265.158 22.3774 265.271 22.1522C265.383 21.927 265.51 21.7159 265.651 21.547C265.792 21.3781 265.946 21.2894 266.101 21.2894C266.354 21.2894 266.533 21.3457 266.644 21.4583C266.757 21.5822 266.813 21.7398 266.813 21.965C266.813 22.0072 266.808 22.0776 266.795 22.1761C266.781 22.2746 266.767 22.3731 266.744 22.4787L266.684 22.7743C266.67 22.8728 266.642 22.9431 266.628 22.9854C266.853 22.7377 267.106 22.4928 267.371 22.2465C267.638 22.003 267.919 21.782 268.201 21.585C268.482 21.388 268.778 21.2191 269.074 21.0994C269.369 20.9728 269.665 20.9094 269.96 20.9094C270.171 20.9094 270.368 20.9376 270.574 20.9939C270.771 21.053 270.954 21.1389 271.109 21.2529C271.273 21.3654 271.401 21.5062 271.5 21.6751C271.598 21.844 271.648 22.0452 271.648 22.2718C271.648 22.5716 271.569 22.8911 271.423 23.2289C271.268 23.5723 271.085 23.9185 270.851 24.2563C270.626 24.6025 270.377 24.9374 270.111 25.2626C269.843 25.5863 269.604 25.8818 269.365 26.1492L268.774 26.8389C268.619 27.0218 268.535 27.1485 268.532 27.2189C268.532 27.3033 268.56 27.3737 268.616 27.43C268.672 27.4863 268.771 27.5144 268.898 27.5144C269.007 27.5144 269.162 27.4511 269.362 27.3314C269.57 27.2048 269.855 27.0077 270.221 26.7178C270.587 26.4223 271.059 26.0423 271.624 25.5497C272.187 25.0627 272.89 24.4519 273.717 23.7102L273.608 23.6074Z" fill="#E84D4E"/>
</g>
<path d="M290.312 4C290.312 1.79086 292.102 0 294.312 0H334.312C336.521 0 338.312 1.79086 338.312 4V44C338.312 46.2092 336.521 48 334.312 48H294.312C292.102 48 290.312 46.2092 290.312 44V4Z" fill="white"/>
<mask id="mask4_117039_20066" style="mask-type:luminance" maskUnits="userSpaceOnUse" x="304" y="9" width="21" height="30">
<path d="M324.316 9H304.312V39H324.316V9Z" fill="white"/>
</mask>
<g mask="url(#mask4_117039_20066)">
<path d="M309.312 39C312.073 39 314.313 36.76 314.313 34V29H309.312C306.553 29 304.312 31.24 304.312 34C304.312 36.76 306.553 39 309.312 39Z" fill="#0ACF83"/>
<path d="M304.312 24C304.312 21.24 306.553 19 309.312 19H314.313V29H309.312C306.553 29 304.312 26.76 304.312 24Z" fill="#A259FF"/>
<path d="M304.312 14C304.312 11.24 306.553 9 309.312 9H314.313V19H309.312C306.553 19 304.312 16.76 304.312 14Z" fill="#F24E1E"/>
<path d="M314.312 9H319.313C322.073 9 324.313 11.24 324.313 14C324.313 16.76 322.073 19 319.313 19H314.312V9Z" fill="#FF7262"/>
<path d="M324.313 24C324.313 26.76 322.073 29 319.313 29C316.553 29 314.312 26.76 314.312 24C314.312 21.24 316.553 19 319.313 19C322.073 19 324.313 21.24 324.313 24Z" fill="#1ABCFE"/>
</g>
</g>
</g>
</g>
<defs>
<linearGradient id="paint0_linear_117039_20066" x1="22.0071" y1="17.7058" x2="22.0071" y2="33.2572" gradientUnits="userSpaceOnUse">
<stop stop-color="#0994DC"/>
<stop offset="0.35" stop-color="#66CEF5"/>
<stop offset="0.846" stop-color="#127BCA"/>
<stop offset="1" stop-color="#127BCA"/>
</linearGradient>
<linearGradient id="paint1_linear_117039_20066" x1="22.5926" y1="17.3317" x2="22.5926" y2="33.2386" gradientUnits="userSpaceOnUse">
<stop stop-color="#0E76BC"/>
<stop offset="0.36" stop-color="#36AEE8"/>
<stop offset="0.846" stop-color="#00ADEF"/>
<stop offset="1" stop-color="#00ADEF"/>
</linearGradient>
<linearGradient id="paint2_linear_117039_20066" x1="25.7403" y1="29.7744" x2="25.7403" y2="17.1175" gradientUnits="userSpaceOnUse">
<stop stop-color="#1C63B7"/>
<stop offset="0.5" stop-color="#33BDF2"/>
<stop offset="1" stop-color="#33BDF2" stop-opacity="0.42"/>
</linearGradient>
<linearGradient id="paint3_linear_117039_20066" x1="24.8849" y1="15.6696" x2="24.8849" y2="32.2274" gradientUnits="userSpaceOnUse">
<stop stop-color="#166AB8"/>
<stop offset="0.4" stop-color="#36AEE8"/>
<stop offset="0.846" stop-color="#0798DD"/>
<stop offset="1" stop-color="#0798DD"/>
</linearGradient>
<linearGradient id="paint4_linear_117039_20066" x1="23.665" y1="15.7991" x2="23.665" y2="33.4062" gradientUnits="userSpaceOnUse">
<stop stop-color="#124379"/>
<stop offset="0.39" stop-color="#1487CB"/>
<stop offset="0.78" stop-color="#165197"/>
<stop offset="1" stop-color="#165197"/>
</linearGradient>
<linearGradient id="paint5_linear_117039_20066" x1="16.4106" y1="20.9974" x2="18.8958" y2="20.9974" gradientUnits="userSpaceOnUse">
<stop stop-color="#33BDF2" stop-opacity="0.698"/>
<stop offset="1" stop-color="#1DACD8"/>
</linearGradient>
<linearGradient id="paint6_linear_117039_20066" x1="35.2314" y1="29.4145" x2="35.2314" y2="17.085" gradientUnits="userSpaceOnUse">
<stop stop-color="#136AB4"/>
<stop offset="0.6" stop-color="#59CAF5" stop-opacity="0.549"/>
<stop offset="1" stop-color="#59CAF5" stop-opacity="0.235"/>
</linearGradient>
<linearGradient id="paint7_linear_117039_20066" x1="7.5907" y1="23.9459" x2="16.8096" y2="23.9459" gradientUnits="userSpaceOnUse">
<stop stop-color="#05A1E6" stop-opacity="0.247"/>
<stop offset="1" stop-color="#05A1E6"/>
</linearGradient>
<linearGradient id="paint8_linear_117039_20066" x1="12.8789" y1="29.7633" x2="12.8789" y2="17.1388" gradientUnits="userSpaceOnUse">
<stop stop-color="#318ED5"/>
<stop offset="1" stop-color="#38A7E4"/>
</linearGradient>
<linearGradient id="paint9_linear_117039_20066" x1="13.5764" y1="29.8442" x2="13.5764" y2="17.541" gradientUnits="userSpaceOnUse">
<stop stop-color="#05A1E6"/>
<stop offset="1" stop-color="#05A1E6" stop-opacity="0.549"/>
</linearGradient>
<linearGradient id="paint10_linear_117039_20066" x1="14.3309" y1="30.4737" x2="14.3309" y2="20.0774" gradientUnits="userSpaceOnUse">
<stop stop-color="#1959A6"/>
<stop offset="0.5" stop-color="#05A1E6"/>
<stop offset="0.918" stop-color="#7EC5EA"/>
<stop offset="1" stop-color="#7EC5EA"/>
</linearGradient>
<linearGradient id="paint11_linear_117039_20066" x1="14.6428" y1="29.7855" x2="12.6602" y2="18.5418" gradientUnits="userSpaceOnUse">
<stop stop-color="#165096"/>
<stop offset="1" stop-color="#0D82CA"/>
</linearGradient>
<linearGradient id="paint12_linear_117039_20066" x1="33.0347" y1="23.4074" x2="33.0347" y2="17.5314" gradientUnits="userSpaceOnUse">
<stop stop-color="#05A1E6"/>
<stop offset="0.874" stop-color="#0495D6"/>
<stop offset="1" stop-color="#0495D6"/>
</linearGradient>
<linearGradient id="paint13_linear_117039_20066" x1="35.8988" y1="17.0113" x2="33.5096" y2="30.5609" gradientUnits="userSpaceOnUse">
<stop stop-color="#38A7E4" stop-opacity="0.329"/>
<stop offset="0.962" stop-color="#0E88D3"/>
<stop offset="1" stop-color="#0E88D3"/>
</linearGradient>
<linearGradient id="paint14_linear_117039_20066" x1="33.6439" y1="17.4949" x2="33.6439" y2="30.3138" gradientUnits="userSpaceOnUse">
<stop stop-color="#168CD4"/>
<stop offset="0.5" stop-color="#1C87CC"/>
<stop offset="1" stop-color="#154B8D"/>
</linearGradient>
<linearGradient id="paint15_linear_117039_20066" x1="16.3068" y1="16.244" x2="31.2117" y2="22.4265" gradientUnits="userSpaceOnUse">
<stop stop-color="#97D6EE"/>
<stop offset="0.703" stop-color="#55C1EA"/>
<stop offset="1" stop-color="#55C1EA"/>
</linearGradient>
<linearGradient id="paint16_linear_117039_20066" x1="20.359" y1="19.7432" x2="32.1313" y2="14.4067" gradientUnits="userSpaceOnUse">
<stop stop-color="#7ACCEC"/>
<stop offset="1" stop-color="#3FB7ED"/>
</linearGradient>
<linearGradient id="paint17_linear_117039_20066" x1="31.8948" y1="18.1921" x2="31.8948" y2="30.7303" gradientUnits="userSpaceOnUse">
<stop stop-color="#1DA7E7"/>
<stop offset="1" stop-color="#37ABE7" stop-opacity="0"/>
</linearGradient>
<clipPath id="clip0_117039_20066">
<rect width="339" height="48" fill="white"/>
</clipPath>
</defs>
</svg>
